<svg xmlns="http://www.w3.org/2000/svg" xmlns:xlink="http://www.w3.org/1999/xlink" width="1500" zoomAndPan="magnify" viewBox="0 0 1125 525.000007" height="700" preserveAspectRatio="xMidYMid meet" version="1.0"><defs><g/><clipPath id="64ad7a8d06"><path d="M 1.070312 0 L 1123.929688 0 L 1123.929688 524 L 1.070312 524 Z M 1.070312 0 " clip-rule="nonzero"/></clipPath><clipPath id="b84261b6bb"><path d="M 482 167 L 605 167 L 605 315.421875 L 482 315.421875 Z M 482 167 " clip-rule="nonzero"/></clipPath><clipPath id="b8a1f6b629"><path d="M 505 219 L 588 219 L 588 315.421875 L 505 315.421875 Z M 505 219 " clip-rule="nonzero"/></clipPath></defs><g clip-path="url(#64ad7a8d06)"><path fill="#ffffff" d="M 1.070312 0 L 1123.929688 0 L 1123.929688 524 L 1.070312 524 Z M 1.070312 0 " fill-opacity="1" fill-rule="nonzero"/><path fill="#f1dacc" d="M 1.070312 0 L 1123.929688 0 L 1123.929688 524 L 1.070312 524 Z M 1.070312 0 " fill-opacity="1" fill-rule="nonzero"/></g><g clip-path="url(#b84261b6bb)"><path stroke-linecap="butt" transform="matrix(0.748814, 0, 0, 0.748574, 405.957078, 73.85161)" fill="none" stroke-linejoin="miter" d="M 226.603035 312.427247 C 229.999029 308.576176 233.363725 304.813815 236.69712 301.140164 C 241.125998 296.235005 244.287247 292.102148 246.186083 288.736374 C 250.818407 280.52806 254.673461 269.971532 253.651011 260.510837 C 252.435548 249.343773 249.034336 239.032503 243.463027 229.587463 C 241.574624 226.39911 241.037316 226.613058 241.851103 230.22409 C 243.186548 236.078971 242.304946 241.829487 239.221946 247.486075 C 239.023716 247.867007 238.710721 248.03921 238.282961 248.002682 C 237.855202 247.960936 237.56829 247.741769 237.422225 247.334745 C 233.854083 237.226987 228.94528 229.608336 222.701031 224.478792 C 215.502149 218.550856 207.786824 215.331193 204.922921 205.77657 C 203.582259 201.346272 202.982352 196.289784 203.128416 190.601887 C 203.686591 169.264446 201.146115 148.130516 180.957944 136.457282 C 180.749281 136.34248 180.530184 136.316389 180.305871 136.379008 C 179.716397 136.545992 179.653798 136.827778 180.118074 137.229584 C 186.179742 142.473929 188.965397 148.991528 188.480255 156.7876 C 187.348257 174.978434 164.494412 185.060101 153.023148 196.096708 C 136.413552 212.095875 130.064972 232.718416 133.977408 257.953893 C 134.008708 258.173059 133.930459 258.340043 133.742662 258.460063 C 133.560082 258.574865 133.372285 258.574865 133.189704 258.449627 C 123.111268 251.702424 119.391845 242.257384 115.985417 231.293832 C 115.328128 229.175221 114.889935 229.216967 114.670839 231.41907 C 112.938934 248.467107 114.827336 264.68544 120.336047 280.063635 C 122.380947 285.761969 125.677826 291.439429 130.231902 297.096017 C 135.229388 303.279648 140.899812 309.087565 147.248392 314.514549 " stroke="#f57621" stroke-width="2" stroke-opacity="1" stroke-miterlimit="4"/></g><g clip-path="url(#b8a1f6b629)"><path stroke-linecap="butt" transform="matrix(0.748814, 0, 0, 0.748574, 405.957078, 73.85161)" fill="none" stroke-linejoin="miter" d="M 208.209367 318.558696 C 220.118823 310.856553 227.343789 300.795759 229.884265 288.381532 C 231.496188 280.522842 231.746584 272.799826 230.640669 265.202048 C 230.025112 260.928297 229.279141 260.907424 228.413188 265.139428 C 227.369872 270.175044 224.933728 274.688834 221.104757 278.670361 C 219.732796 280.105381 219.112023 279.834032 219.247654 277.851096 C 220.217938 263.099091 215.350868 251.055361 204.646442 241.714686 C 195.600889 233.814249 181.37527 230.516312 179.471218 216.693157 C 179.022592 213.515241 180.290221 210.342542 182.053426 207.790816 C 183.931395 205.092978 183.550585 204.717264 180.910995 206.658455 C 174.160738 211.615796 171.635912 222.12536 172.021939 230.114507 C 172.308851 236.042444 172.397533 241.756432 172.282768 247.256472 C 172.084538 256.931115 162.997253 259.45675 158.411877 266.579667 C 156.460876 269.616691 154.963717 272.784171 153.9204 276.087326 C 153.002282 279.040857 152.026781 279.06173 150.993898 276.149945 C 149.961015 273.279905 149.423707 270.352464 149.371541 267.367623 C 149.350675 266.141333 149.084629 266.089151 148.578621 267.216294 C 143.393338 278.717326 141.645783 291.293318 148.766417 302.580402 C 152.793619 308.957108 159.590825 315.02072 169.158036 320.771236 " stroke="#fcc021" stroke-width="2" stroke-opacity="1" stroke-miterlimit="4"/></g><path fill="#ef5922" d="M 575.640625 307.726562 C 578.183594 304.84375 580.703125 302.027344 583.199219 299.277344 C 586.515625 295.605469 588.882812 292.511719 590.304688 289.992188 C 593.773438 283.847656 596.660156 275.945312 595.894531 268.863281 C 594.984375 260.503906 592.4375 252.785156 588.265625 245.714844 C 586.851562 243.328125 586.449219 243.488281 587.058594 246.191406 C 588.058594 250.574219 587.398438 254.878906 585.089844 259.113281 C 584.941406 259.398438 584.707031 259.527344 584.386719 259.5 C 584.066406 259.46875 583.851562 259.304688 583.742188 259 C 581.070312 251.433594 577.394531 245.730469 572.71875 241.890625 C 567.328125 237.453125 561.550781 235.042969 559.40625 227.890625 C 558.402344 224.574219 557.953125 220.789062 558.0625 216.53125 C 558.480469 200.558594 556.578125 184.738281 541.460938 176 C 541.304688 175.914062 541.140625 175.894531 540.972656 175.941406 C 540.53125 176.066406 540.484375 176.277344 540.832031 176.578125 C 545.371094 180.503906 547.457031 185.382812 547.09375 191.21875 C 546.246094 204.835938 529.132812 212.382812 520.542969 220.644531 C 508.105469 232.621094 503.351562 248.058594 506.28125 266.949219 C 506.304688 267.113281 506.246094 267.238281 506.105469 267.328125 C 505.96875 267.414062 505.828125 267.414062 505.691406 267.320312 C 498.144531 262.269531 495.359375 255.199219 492.808594 246.992188 C 492.316406 245.40625 491.988281 245.4375 491.824219 247.085938 C 490.527344 259.847656 491.941406 271.988281 496.066406 283.5 C 497.597656 287.765625 500.066406 292.015625 503.476562 296.25 C 507.21875 300.878906 511.464844 305.226562 516.21875 309.289062 C 511.386719 307.550781 507.050781 305.328125 503.210938 302.613281 C 489.816406 293.1875 480.574219 281.035156 475.488281 266.164062 C 473.316406 259.8125 471.886719 252.242188 471.199219 243.457031 C 470.179688 230.503906 470.886719 217.671875 473.320312 204.953125 C 473.714844 202.867188 474.085938 202.875 474.433594 204.976562 C 474.796875 207.214844 475.171875 209.515625 475.558594 211.871094 C 477.007812 220.820312 481.503906 232.292969 489.214844 237.882812 C 489.476562 238.070312 489.75 238.09375 490.042969 237.957031 C 490.332031 237.816406 490.484375 237.589844 490.503906 237.265625 C 490.648438 233.84375 490.734375 230.339844 490.757812 226.753906 C 490.910156 200.917969 505.425781 176.277344 528.519531 162.996094 C 539.070312 156.921875 549.933594 150.324219 556.449219 140.136719 C 563.5 129.117188 561.066406 117.882812 553.761719 107.917969 C 552.765625 106.5625 552.976562 106.339844 554.398438 107.242188 C 562.167969 112.191406 567.617188 122.371094 569.703125 130.75 C 572.199219 140.808594 572.683594 151.230469 571.152344 162.007812 C 569.992188 170.167969 569.355469 178.339844 570.003906 186.234375 C 570.433594 191.355469 572.660156 196.410156 576.347656 200.128906 C 582.769531 206.597656 589.574219 211.722656 593.632812 220.242188 C 596.144531 225.503906 598.226562 231.640625 599.871094 238.65625 C 599.910156 238.828125 599.984375 238.980469 600.09375 239.117188 C 600.207031 239.253906 600.339844 239.355469 600.5 239.429688 C 600.660156 239.5 600.828125 239.53125 601.003906 239.523438 C 601.175781 239.519531 601.339844 239.472656 601.496094 239.386719 C 601.6875 239.289062 601.839844 239.148438 601.945312 238.972656 C 606.523438 231.722656 608.214844 224.15625 607.023438 216.277344 C 606.777344 214.675781 606.96875 214.621094 607.59375 216.113281 C 612.996094 229.050781 615.347656 242.59375 614.640625 256.75 C 614.519531 259.253906 614.070312 261.722656 613.296875 264.15625 C 606.992188 284.023438 594.4375 298.546875 575.640625 307.726562 Z M 575.640625 307.726562 " fill-opacity="1" fill-rule="nonzero"/><path fill="#fa921f" d="M 575.640625 307.726562 C 571.734375 309.929688 567.144531 311.457031 561.867188 312.316406 C 570.785156 306.550781 576.195312 299.019531 578.097656 289.726562 C 579.304688 283.84375 579.492188 278.0625 578.664062 272.375 C 578.203125 269.175781 577.644531 269.160156 576.996094 272.328125 C 576.214844 276.097656 574.390625 279.476562 571.523438 282.457031 C 570.496094 283.53125 570.03125 283.328125 570.132812 281.84375 C 570.859375 270.800781 567.214844 261.785156 559.199219 254.792969 C 552.425781 248.878906 541.773438 246.410156 540.347656 236.0625 C 540.011719 233.683594 540.960938 231.308594 542.28125 229.398438 C 543.6875 227.378906 543.402344 227.097656 541.425781 228.550781 C 536.371094 232.261719 534.480469 240.128906 534.769531 246.109375 C 534.984375 250.546875 535.050781 254.824219 534.964844 258.941406 C 534.816406 266.183594 528.011719 268.074219 524.578125 273.40625 C 523.117188 275.679688 521.996094 278.050781 521.214844 280.523438 C 520.527344 282.734375 519.796875 282.75 519.023438 280.570312 C 518.25 278.421875 517.847656 276.230469 517.808594 273.996094 C 517.792969 273.078125 517.59375 273.039062 517.214844 273.882812 C 513.332031 282.492188 512.023438 291.90625 517.355469 300.355469 C 520.371094 305.128906 525.460938 309.667969 532.625 313.972656 C 526.261719 313.125 520.792969 311.5625 516.21875 309.289062 C 511.464844 305.226562 507.21875 300.878906 503.476562 296.25 C 500.066406 292.015625 497.597656 287.765625 496.066406 283.5 C 491.941406 271.988281 490.527344 259.847656 491.824219 247.085938 C 491.988281 245.4375 492.316406 245.40625 492.808594 246.992188 C 495.359375 255.199219 498.144531 262.269531 505.691406 267.320312 C 505.828125 267.414062 505.96875 267.414062 506.105469 267.328125 C 506.246094 267.238281 506.304688 267.113281 506.28125 266.949219 C 503.351562 248.058594 508.105469 232.621094 520.542969 220.644531 C 529.132812 212.382812 546.246094 204.835938 547.09375 191.21875 C 547.457031 185.382812 545.371094 180.503906 540.832031 176.578125 C 540.484375 176.277344 540.53125 176.066406 540.972656 175.941406 C 541.140625 175.894531 541.304688 175.914062 541.460938 176 C 556.578125 184.738281 558.480469 200.558594 558.0625 216.53125 C 557.953125 220.789062 558.402344 224.574219 559.40625 227.890625 C 561.550781 235.042969 567.328125 237.453125 572.71875 241.890625 C 577.394531 245.730469 581.070312 251.433594 583.742188 259 C 583.851562 259.304688 584.066406 259.46875 584.386719 259.5 C 584.707031 259.527344 584.941406 259.398438 585.089844 259.113281 C 587.398438 254.878906 588.058594 250.574219 587.058594 246.191406 C 586.449219 243.488281 586.851562 243.328125 588.265625 245.714844 C 592.4375 252.785156 594.984375 260.503906 595.894531 268.863281 C 596.660156 275.945312 593.773438 283.847656 590.304688 289.992188 C 588.882812 292.511719 586.515625 295.605469 583.199219 299.277344 C 580.703125 302.027344 578.183594 304.84375 575.640625 307.726562 Z M 575.640625 307.726562 " fill-opacity="1" fill-rule="nonzero"/><path fill="#fdee23" d="M 561.867188 312.316406 C 559.292969 313.542969 555.726562 314.328125 551.175781 314.667969 C 543.988281 315.203125 537.804688 314.96875 532.625 313.972656 C 525.460938 309.667969 520.371094 305.128906 517.355469 300.355469 C 512.023438 291.90625 513.332031 282.492188 517.214844 273.882812 C 517.59375 273.039062 517.792969 273.078125 517.808594 273.996094 C 517.847656 276.230469 518.25 278.421875 519.023438 280.570312 C 519.796875 282.75 520.527344 282.734375 521.214844 280.523438 C 521.996094 278.050781 523.117188 275.679688 524.578125 273.40625 C 528.011719 268.074219 534.816406 266.183594 534.964844 258.941406 C 535.050781 254.824219 534.984375 250.546875 534.769531 246.109375 C 534.480469 240.128906 536.371094 232.261719 541.425781 228.550781 C 543.402344 227.097656 543.6875 227.378906 542.28125 229.398438 C 540.960938 231.308594 540.011719 233.683594 540.347656 236.0625 C 541.773438 246.410156 552.425781 248.878906 559.199219 254.792969 C 567.214844 261.785156 570.859375 270.800781 570.132812 281.84375 C 570.03125 283.328125 570.496094 283.53125 571.523438 282.457031 C 574.390625 279.476562 576.214844 276.097656 576.996094 272.328125 C 577.644531 269.160156 578.203125 269.175781 578.664062 272.375 C 579.492188 278.0625 579.304688 283.84375 578.097656 289.726562 C 576.195312 299.019531 570.785156 306.550781 561.867188 312.316406 Z M 561.867188 312.316406 " fill-opacity="1" fill-rule="nonzero"/><g fill="#000000" fill-opacity="1"><g transform="translate(457.38152, 461.870254)"><g><path d="M 1.703125 -20.953125 L 19.25 -20.953125 C 19.46875 -20.953125 19.65625 -20.875 19.8125 -20.71875 C 19.976562 -20.5625 20.0625 -20.367188 20.0625 -20.140625 L 20.0625 -15.328125 C 20.0625 -15.109375 19.976562 -14.914062 19.8125 -14.75 C 19.65625 -14.59375 19.46875 -14.515625 19.25 -14.515625 L 14.28125 -14.515625 L 14.28125 -0.8125 C 14.28125 -0.59375 14.195312 -0.398438 14.03125 -0.234375 C 13.875 -0.078125 13.6875 0 13.46875 0 L 7.484375 0 C 7.265625 0 7.070312 -0.078125 6.90625 -0.234375 C 6.75 -0.398438 6.671875 -0.59375 6.671875 -0.8125 L 6.671875 -14.515625 L 1.703125 -14.515625 C 1.484375 -14.515625 1.289062 -14.59375 1.125 -14.75 C 0.96875 -14.914062 0.890625 -15.109375 0.890625 -15.328125 L 0.890625 -20.140625 C 0.890625 -20.367188 0.96875 -20.5625 1.125 -20.71875 C 1.289062 -20.875 1.484375 -20.953125 1.703125 -20.953125 Z M 1.703125 -20.953125 "/></g></g></g><g fill="#000000" fill-opacity="1"><g transform="translate(478.341573, 461.870254)"><g><path d="M 1.046875 -6.765625 L 1.046875 -8.796875 C 1.046875 -11.078125 1.851562 -12.820312 3.46875 -14.03125 C 5.082031 -15.25 7.164062 -15.859375 9.71875 -15.859375 C 12.28125 -15.859375 14.367188 -15.25 15.984375 -14.03125 C 17.597656 -12.820312 18.40625 -11.078125 18.40625 -8.796875 L 18.40625 -6.765625 C 18.40625 -4.472656 17.625 -2.722656 16.0625 -1.515625 C 14.507812 -0.304688 12.394531 0.296875 9.71875 0.296875 C 7.050781 0.296875 4.9375 -0.304688 3.375 -1.515625 C 1.820312 -2.722656 1.046875 -4.472656 1.046875 -6.765625 Z M 11.078125 -6.53125 L 11.078125 -9.046875 C 11.078125 -9.796875 10.976562 -10.320312 10.78125 -10.625 C 10.582031 -10.925781 10.234375 -11.078125 9.734375 -11.078125 C 9.234375 -11.078125 8.878906 -10.925781 8.671875 -10.625 C 8.472656 -10.320312 8.375 -9.796875 8.375 -9.046875 L 8.375 -6.53125 C 8.375 -5.726562 8.472656 -5.1875 8.671875 -4.90625 C 8.878906 -4.625 9.234375 -4.484375 9.734375 -4.484375 C 10.234375 -4.484375 10.582031 -4.632812 10.78125 -4.9375 C 10.976562 -5.238281 11.078125 -5.769531 11.078125 -6.53125 Z M 11.078125 -6.53125 "/></g></g></g><g fill="#000000" fill-opacity="1"><g transform="translate(497.804477, 461.870254)"><g/></g></g><g fill="#000000" fill-opacity="1"><g transform="translate(506.48793, 461.870254)"><g><path d="M 18.984375 -8.984375 L 18.984375 -6.609375 C 18.984375 -4.253906 18.394531 -2.515625 17.21875 -1.390625 C 16.039062 -0.265625 14.503906 0.296875 12.609375 0.296875 C 10.710938 0.296875 9.242188 -0.367188 8.203125 -1.703125 L 8.203125 -0.8125 C 8.203125 -0.59375 8.117188 -0.398438 7.953125 -0.234375 C 7.796875 -0.078125 7.609375 0 7.390625 0 L 2.3125 0 C 2.082031 0 1.890625 -0.078125 1.734375 -0.234375 C 1.578125 -0.398438 1.5 -0.59375 1.5 -0.8125 L 1.5 -20.453125 C 1.5 -20.671875 1.578125 -20.859375 1.734375 -21.015625 C 1.890625 -21.171875 2.082031 -21.25 2.3125 -21.25 L 7.84375 -21.25 C 8.0625 -21.25 8.25 -21.171875 8.40625 -21.015625 C 8.570312 -20.859375 8.65625 -20.671875 8.65625 -20.453125 L 8.65625 -14.453125 C 9.6875 -15.390625 11.066406 -15.859375 12.796875 -15.859375 C 14.523438 -15.859375 15.988281 -15.269531 17.1875 -14.09375 C 18.382812 -12.914062 18.984375 -11.210938 18.984375 -8.984375 Z M 8.65625 -6.796875 C 8.65625 -5.640625 9.148438 -5.0625 10.140625 -5.0625 C 11.140625 -5.0625 11.640625 -5.640625 11.640625 -6.796875 L 11.640625 -8.765625 C 11.640625 -9.929688 11.144531 -10.515625 10.15625 -10.515625 C 9.207031 -10.515625 8.707031 -10.015625 8.65625 -9.015625 Z M 8.65625 -6.796875 "/></g></g></g><g fill="#000000" fill-opacity="1"><g transform="translate(526.519757, 461.870254)"><g><path d="M 17.296875 -6.015625 L 8.375 -6.015625 L 8.375 -5.875 C 8.375 -4.65625 8.765625 -4.046875 9.546875 -4.046875 C 9.765625 -4.046875 10.035156 -4.203125 10.359375 -4.515625 C 10.679688 -4.835938 11.03125 -5 11.40625 -5 L 17.0625 -5 C 17.5 -5 17.71875 -4.78125 17.71875 -4.34375 C 17.71875 -3.363281 16.984375 -2.34375 15.515625 -1.28125 C 14.054688 -0.226562 12.070312 0.296875 9.5625 0.296875 C 7.0625 0.296875 5.015625 -0.351562 3.421875 -1.65625 C 1.835938 -2.96875 1.046875 -4.769531 1.046875 -7.0625 L 1.046875 -8.5 C 1.046875 -10.675781 1.851562 -12.445312 3.46875 -13.8125 C 5.082031 -15.175781 7.203125 -15.859375 9.828125 -15.859375 C 12.453125 -15.859375 14.488281 -15.085938 15.9375 -13.546875 C 17.382812 -12.015625 18.109375 -10.070312 18.109375 -7.71875 L 18.109375 -6.828125 C 18.109375 -6.609375 18.03125 -6.414062 17.875 -6.25 C 17.71875 -6.09375 17.523438 -6.015625 17.296875 -6.015625 Z M 10.78125 -9.875 C 10.78125 -11.070312 10.378906 -11.671875 9.578125 -11.671875 C 8.773438 -11.671875 8.375 -11.070312 8.375 -9.875 L 8.375 -9.765625 L 10.78125 -9.765625 Z M 10.78125 -9.875 "/></g></g></g><g fill="#000000" fill-opacity="1"><g transform="translate(545.683237, 461.870254)"><g/></g></g><g fill="#000000" fill-opacity="1"><g transform="translate(554.36669, 461.870254)"><g><path d="M 9.796875 -4.3125 C 9.796875 -4.507812 9.742188 -4.671875 9.640625 -4.796875 C 9.378906 -5.109375 8.421875 -5.421875 6.765625 -5.734375 C 5.109375 -6.046875 3.765625 -6.59375 2.734375 -7.375 C 1.710938 -8.164062 1.203125 -9.269531 1.203125 -10.6875 C 1.203125 -12.101562 1.878906 -13.316406 3.234375 -14.328125 C 4.585938 -15.347656 6.414062 -15.859375 8.71875 -15.859375 C 11.03125 -15.859375 12.921875 -15.378906 14.390625 -14.421875 C 15.867188 -13.472656 16.609375 -12.507812 16.609375 -11.53125 C 16.609375 -11.3125 16.539062 -11.117188 16.40625 -10.953125 C 16.28125 -10.796875 16.128906 -10.71875 15.953125 -10.71875 L 10.921875 -10.71875 C 10.628906 -10.71875 10.257812 -10.875 9.8125 -11.1875 C 9.375 -11.507812 9.046875 -11.671875 8.828125 -11.671875 C 8.367188 -11.671875 8.140625 -11.515625 8.140625 -11.203125 C 8.140625 -10.992188 8.191406 -10.832031 8.296875 -10.71875 C 8.554688 -10.414062 9.644531 -10.125 11.5625 -9.84375 C 13.476562 -9.570312 14.910156 -8.960938 15.859375 -8.015625 C 16.804688 -7.066406 17.28125 -6.007812 17.28125 -4.84375 C 17.28125 -3.226562 16.550781 -1.960938 15.09375 -1.046875 C 13.632812 -0.128906 11.566406 0.328125 8.890625 0.328125 C 7.472656 0.328125 6.210938 0.171875 5.109375 -0.140625 C 4.015625 -0.460938 3.179688 -0.863281 2.609375 -1.34375 C 1.460938 -2.28125 0.890625 -3.160156 0.890625 -3.984375 C 0.890625 -4.203125 0.957031 -4.390625 1.09375 -4.546875 C 1.238281 -4.710938 1.410156 -4.796875 1.609375 -4.796875 L 6.828125 -4.796875 C 7.109375 -4.796875 7.472656 -4.640625 7.921875 -4.328125 C 8.367188 -4.015625 8.789062 -3.859375 9.1875 -3.859375 C 9.59375 -3.859375 9.796875 -4.007812 9.796875 -4.3125 Z M 9.796875 -4.3125 "/></g></g></g><g fill="#000000" fill-opacity="1"><g transform="translate(572.452221, 461.870254)"><g><path d="M 17.296875 -6.015625 L 8.375 -6.015625 L 8.375 -5.875 C 8.375 -4.65625 8.765625 -4.046875 9.546875 -4.046875 C 9.765625 -4.046875 10.035156 -4.203125 10.359375 -4.515625 C 10.679688 -4.835938 11.03125 -5 11.40625 -5 L 17.0625 -5 C 17.5 -5 17.71875 -4.78125 17.71875 -4.34375 C 17.71875 -3.363281 16.984375 -2.34375 15.515625 -1.28125 C 14.054688 -0.226562 12.070312 0.296875 9.5625 0.296875 C 7.0625 0.296875 5.015625 -0.351562 3.421875 -1.65625 C 1.835938 -2.96875 1.046875 -4.769531 1.046875 -7.0625 L 1.046875 -8.5 C 1.046875 -10.675781 1.851562 -12.445312 3.46875 -13.8125 C 5.082031 -15.175781 7.203125 -15.859375 9.828125 -15.859375 C 12.453125 -15.859375 14.488281 -15.085938 15.9375 -13.546875 C 17.382812 -12.015625 18.109375 -10.070312 18.109375 -7.71875 L 18.109375 -6.828125 C 18.109375 -6.609375 18.03125 -6.414062 17.875 -6.25 C 17.71875 -6.09375 17.523438 -6.015625 17.296875 -6.015625 Z M 10.78125 -9.875 C 10.78125 -11.070312 10.378906 -11.671875 9.578125 -11.671875 C 8.773438 -11.671875 8.375 -11.070312 8.375 -9.875 L 8.375 -9.765625 L 10.78125 -9.765625 Z M 10.78125 -9.875 "/></g></g></g><g fill="#000000" fill-opacity="1"><g transform="translate(591.6157, 461.870254)"><g><path d="M 19.125 -9.078125 L 19.125 -0.8125 C 19.125 -0.59375 19.046875 -0.398438 18.890625 -0.234375 C 18.734375 -0.078125 18.546875 0 18.328125 0 L 12.609375 0 C 12.390625 0 12.195312 -0.078125 12.03125 -0.234375 C 11.875 -0.398438 11.796875 -0.59375 11.796875 -0.8125 L 11.796875 -8.859375 C 11.796875 -9.960938 11.296875 -10.515625 10.296875 -10.515625 C 9.296875 -10.515625 8.796875 -9.960938 8.796875 -8.859375 L 8.796875 -0.8125 C 8.796875 -0.59375 8.71875 -0.398438 8.5625 -0.234375 C 8.40625 -0.078125 8.21875 0 8 0 L 2.3125 0 C 2.082031 0 1.890625 -0.078125 1.734375 -0.234375 C 1.578125 -0.398438 1.5 -0.59375 1.5 -0.8125 L 1.5 -14.765625 C 1.5 -14.984375 1.578125 -15.171875 1.734375 -15.328125 C 1.890625 -15.484375 2.082031 -15.5625 2.3125 -15.5625 L 7.546875 -15.5625 C 7.765625 -15.5625 7.953125 -15.484375 8.109375 -15.328125 C 8.273438 -15.171875 8.359375 -14.984375 8.359375 -14.765625 L 8.359375 -13.765625 C 8.867188 -14.390625 9.566406 -14.894531 10.453125 -15.28125 C 11.347656 -15.664062 12.304688 -15.859375 13.328125 -15.859375 C 14.960938 -15.859375 16.335938 -15.285156 17.453125 -14.140625 C 18.566406 -12.992188 19.125 -11.304688 19.125 -9.078125 Z M 19.125 -9.078125 "/></g></g></g><g fill="#000000" fill-opacity="1"><g transform="translate(612.096666, 461.870254)"><g><path d="M 10.484375 -10.328125 L 10.484375 -7.03125 C 10.484375 -6.03125 10.910156 -5.53125 11.765625 -5.53125 L 14.484375 -5.53125 C 14.703125 -5.53125 14.890625 -5.453125 15.046875 -5.296875 C 15.210938 -5.140625 15.296875 -4.953125 15.296875 -4.734375 L 15.296875 -0.8125 C 15.296875 -0.59375 15.210938 -0.398438 15.046875 -0.234375 C 14.890625 -0.078125 14.703125 0 14.484375 0 L 11.109375 0 C 6.117188 0 3.625 -2.144531 3.625 -6.4375 L 3.625 -10.328125 L 1.25 -10.328125 C 1.03125 -10.328125 0.84375 -10.40625 0.6875 -10.5625 C 0.53125 -10.726562 0.453125 -10.921875 0.453125 -11.140625 L 0.453125 -14.765625 C 0.453125 -14.984375 0.53125 -15.171875 0.6875 -15.328125 C 0.84375 -15.484375 1.03125 -15.5625 1.25 -15.5625 L 3.625 -15.5625 L 3.625 -20.453125 C 3.625 -20.671875 3.703125 -20.859375 3.859375 -21.015625 C 4.015625 -21.171875 4.207031 -21.25 4.4375 -21.25 L 9.671875 -21.25 C 9.890625 -21.25 10.078125 -21.171875 10.234375 -21.015625 C 10.398438 -20.859375 10.484375 -20.671875 10.484375 -20.453125 L 10.484375 -15.5625 L 14.25 -15.5625 C 14.46875 -15.5625 14.65625 -15.484375 14.8125 -15.328125 C 14.976562 -15.171875 15.0625 -14.984375 15.0625 -14.765625 L 15.0625 -11.140625 C 15.0625 -10.921875 14.976562 -10.726562 14.8125 -10.5625 C 14.65625 -10.40625 14.46875 -10.328125 14.25 -10.328125 Z M 10.484375 -10.328125 "/></g></g></g></svg>