<svg xmlns="http://www.w3.org/2000/svg" xmlns:xlink="http://www.w3.org/1999/xlink" width="470" zoomAndPan="magnify" viewBox="0 0 352.5 225" height="300" preserveAspectRatio="xMidYMid meet" version="1.0"><defs><clipPath id="45d5616d52"><path d="M 67 10 L 272.886719 10 L 272.886719 216.957031 L 67 216.957031 Z M 67 10 " clip-rule="nonzero"/></clipPath></defs><g clip-path="url(#45d5616d52)"><path fill="#ffffff" d="M 214.523438 216.980469 C 213.84375 216.980469 213.171875 216.914062 212.507812 216.78125 C 211.839844 216.648438 211.191406 216.453125 210.566406 216.191406 C 209.9375 215.929688 209.34375 215.613281 208.777344 215.234375 C 208.210938 214.859375 207.691406 214.429688 207.210938 213.949219 C 206.730469 213.46875 206.300781 212.945312 205.921875 212.382812 C 205.546875 211.816406 205.226562 211.21875 204.96875 210.59375 C 204.707031 209.964844 204.511719 209.320312 204.378906 208.652344 C 204.246094 207.984375 204.179688 207.3125 204.179688 206.632812 L 204.179688 179.738281 C 204.339844 178.191406 204.339844 176.644531 204.175781 175.097656 C 204.011719 173.550781 203.6875 172.039062 203.207031 170.558594 C 202.726562 169.082031 202.097656 167.667969 201.320312 166.320312 C 200.542969 164.972656 199.632812 163.722656 198.59375 162.566406 C 197.949219 161.867188 197.414062 161.09375 196.980469 160.25 C 196.550781 159.402344 196.242188 158.511719 196.054688 157.582031 C 195.867188 156.648438 195.8125 155.710938 195.882812 154.761719 C 195.957031 153.816406 196.15625 152.894531 196.480469 152.003906 C 196.808594 151.113281 197.25 150.28125 197.804688 149.507812 C 198.359375 148.738281 199.007812 148.058594 199.75 147.464844 C 200.492188 146.871094 201.300781 146.390625 202.175781 146.023438 C 203.050781 145.652344 203.960938 145.410156 204.902344 145.289062 C 230.144531 142.289062 253.421875 134.222656 253.421875 90.464844 C 253.425781 86.378906 252.835938 82.378906 251.65625 78.46875 C 250.476562 74.554688 248.753906 70.898438 246.488281 67.496094 C 245.457031 65.949219 244.582031 64.3125 243.867188 62.589844 C 243.15625 60.867188 242.617188 59.089844 242.253906 57.265625 C 241.890625 55.4375 241.707031 53.589844 241.707031 51.726562 C 241.707031 49.863281 241.886719 48.015625 242.25 46.1875 C 243.1875 41.324219 243.1875 36.464844 242.25 31.601562 C 234.457031 34.238281 227.25 37.996094 220.628906 42.878906 C 219.367188 43.773438 217.976562 44.355469 216.457031 44.625 C 214.9375 44.898438 213.429688 44.832031 211.9375 44.429688 C 207.292969 43.117188 202.582031 42.128906 197.800781 41.464844 C 193.019531 40.804688 188.214844 40.472656 183.386719 40.472656 C 178.558594 40.472656 173.757812 40.804688 168.976562 41.464844 C 164.195312 42.128906 159.480469 43.117188 154.835938 44.429688 C 153.34375 44.832031 151.835938 44.898438 150.316406 44.625 C 148.796875 44.355469 147.40625 43.773438 146.144531 42.878906 C 139.480469 37.9375 132.207031 34.175781 124.320312 31.601562 C 123.324219 36.464844 123.324219 41.324219 124.320312 46.1875 C 124.65625 48.039062 124.8125 49.90625 124.789062 51.789062 C 124.765625 53.671875 124.5625 55.535156 124.183594 57.378906 C 123.800781 59.222656 123.246094 61.011719 122.523438 62.75 C 121.796875 64.484375 120.914062 66.136719 119.871094 67.703125 C 117.617188 71.128906 115.898438 74.804688 114.71875 78.734375 C 113.539062 82.660156 112.945312 86.671875 112.941406 90.773438 C 112.941406 131.015625 132.386719 141.773438 161.558594 145.496094 C 162.515625 145.617188 163.433594 145.863281 164.320312 146.238281 C 165.207031 146.613281 166.023438 147.101562 166.773438 147.703125 C 167.519531 148.308594 168.171875 149 168.730469 149.785156 C 169.285156 150.570312 169.722656 151.417969 170.042969 152.324219 C 170.34375 153.203125 170.523438 154.109375 170.578125 155.039062 C 170.636719 155.964844 170.566406 156.886719 170.378906 157.796875 C 170.1875 158.707031 169.878906 159.574219 169.453125 160.402344 C 169.027344 161.226562 168.5 161.984375 167.871094 162.667969 C 166.863281 163.746094 165.980469 164.910156 165.214844 166.171875 C 164.449219 167.429688 163.824219 168.753906 163.335938 170.140625 C 162.84375 171.53125 162.503906 172.953125 162.308594 174.414062 C 162.113281 175.875 162.070312 177.339844 162.179688 178.808594 L 162.179688 206.632812 C 162.179688 207.3125 162.113281 207.984375 161.980469 208.652344 C 161.847656 209.320312 161.652344 209.964844 161.394531 210.59375 C 161.132812 211.21875 160.8125 211.816406 160.4375 212.382812 C 160.058594 212.945312 159.628906 213.46875 159.148438 213.949219 C 158.671875 214.429688 158.148438 214.859375 157.582031 215.234375 C 157.019531 215.613281 156.421875 215.929688 155.792969 216.191406 C 155.167969 216.453125 154.519531 216.648438 153.855469 216.78125 C 153.1875 216.914062 152.515625 216.980469 151.835938 216.980469 C 151.15625 216.980469 150.484375 216.914062 149.816406 216.78125 C 149.152344 216.648438 148.503906 216.453125 147.875 216.191406 C 147.25 215.929688 146.652344 215.613281 146.089844 215.234375 C 145.523438 214.859375 145 214.429688 144.519531 213.949219 C 144.039062 213.46875 143.613281 212.945312 143.234375 212.382812 C 142.855469 211.816406 142.539062 211.21875 142.277344 210.59375 C 142.019531 209.964844 141.820312 209.320312 141.691406 208.652344 C 141.558594 207.984375 141.492188 207.3125 141.492188 206.632812 L 141.492188 200.738281 C 138.960938 201.027344 136.417969 201.164062 133.871094 201.140625 C 131.324219 201.121094 128.785156 200.941406 126.257812 200.609375 C 123.734375 200.273438 121.238281 199.785156 118.769531 199.144531 C 116.304688 198.503906 113.886719 197.710938 111.519531 196.773438 C 109.148438 195.832031 106.847656 194.75 104.609375 193.527344 C 102.375 192.304688 100.222656 190.949219 98.15625 189.460938 C 96.085938 187.972656 94.117188 186.363281 92.246094 184.632812 C 90.375 182.902344 88.617188 181.0625 86.972656 179.117188 C 83.550781 175.324219 79.550781 172.289062 74.972656 170.015625 C 74.316406 169.84375 73.679688 169.613281 73.066406 169.316406 C 72.453125 169.023438 71.875 168.671875 71.328125 168.261719 C 70.785156 167.851562 70.289062 167.394531 69.832031 166.886719 C 69.378906 166.378906 68.980469 165.832031 68.632812 165.246094 C 68.289062 164.660156 68.003906 164.046875 67.777344 163.40625 C 67.550781 162.761719 67.390625 162.105469 67.296875 161.429688 C 67.203125 160.757812 67.171875 160.078125 67.210938 159.398438 C 67.25 158.722656 67.351562 158.050781 67.523438 157.390625 C 67.691406 156.734375 67.925781 156.097656 68.21875 155.484375 C 68.515625 154.871094 68.867188 154.292969 69.277344 153.75 C 69.6875 153.203125 70.144531 152.707031 70.652344 152.253906 C 71.160156 151.800781 71.707031 151.398438 72.292969 151.054688 C 72.878906 150.707031 73.492188 150.421875 74.136719 150.199219 C 74.777344 149.972656 75.433594 149.8125 76.109375 149.71875 C 76.78125 149.621094 77.460938 149.59375 78.140625 149.632812 C 78.820312 149.671875 79.488281 149.773438 80.148438 149.945312 C 84.125 151.394531 87.867188 153.308594 91.367188 155.691406 C 94.871094 158.074219 98.027344 160.847656 100.835938 164.015625 C 111.179688 174.359375 121.527344 183.460938 141.179688 179.738281 C 140.832031 174.125 141.625 168.675781 143.558594 163.394531 C 122.25 158.015625 91.835938 142.703125 91.835938 90.980469 C 91.824219 84.855469 92.695312 78.859375 94.457031 72.992188 C 96.21875 67.125 98.792969 61.636719 102.179688 56.53125 C 102.808594 55.589844 103.242188 54.566406 103.472656 53.457031 C 103.707031 52.347656 103.722656 51.234375 103.527344 50.117188 C 102.480469 44.535156 102.25 38.917969 102.828125 33.269531 C 103.410156 27.617188 104.78125 22.167969 106.941406 16.914062 C 107.535156 15.492188 108.402344 14.269531 109.539062 13.238281 C 110.679688 12.207031 111.984375 11.464844 113.457031 11.015625 C 116.972656 9.980469 129.59375 7.914062 153.492188 23.429688 C 163.164062 21.101562 172.972656 19.9375 182.921875 19.9375 C 192.871094 19.9375 202.679688 21.101562 212.351562 23.429688 C 236.25 7.914062 248.867188 9.878906 252.28125 11.015625 C 253.753906 11.464844 255.058594 12.207031 256.199219 13.238281 C 257.339844 14.269531 258.207031 15.492188 258.800781 16.914062 C 260.964844 22.183594 262.335938 27.652344 262.917969 33.320312 C 263.496094 38.988281 263.261719 44.621094 262.214844 50.222656 C 262 51.242188 261.992188 52.261719 262.1875 53.285156 C 262.386719 54.308594 262.773438 55.253906 263.351562 56.117188 C 265.039062 58.664062 266.53125 61.320312 267.828125 64.085938 C 269.125 66.851562 270.210938 69.699219 271.089844 72.625 C 271.964844 75.554688 272.621094 78.527344 273.058594 81.550781 C 273.496094 84.574219 273.707031 87.613281 273.695312 90.671875 C 273.695312 143.117188 243.488281 158.324219 221.972656 163.082031 C 223.886719 168.6875 224.644531 174.449219 224.25 180.359375 L 224.25 206.632812 C 224.25 207.289062 224.1875 207.9375 224.066406 208.578125 C 223.945312 209.222656 223.765625 209.847656 223.523438 210.453125 C 223.285156 211.0625 222.988281 211.644531 222.636719 212.195312 C 222.289062 212.746094 221.890625 213.261719 221.441406 213.738281 C 220.992188 214.214844 220.503906 214.644531 219.976562 215.027344 C 219.445312 215.414062 218.886719 215.742188 218.292969 216.019531 C 217.699219 216.296875 217.085938 216.515625 216.453125 216.679688 C 215.820312 216.839844 215.175781 216.941406 214.523438 216.980469 Z M 214.523438 216.980469 " fill-opacity="1" fill-rule="nonzero"/></g></svg>