<svg xmlns="http://www.w3.org/2000/svg" xmlns:xlink="http://www.w3.org/1999/xlink" width="470" zoomAndPan="magnify" viewBox="0 0 352.5 225" height="300" preserveAspectRatio="xMidYMid meet" version="1.0"><defs><clipPath id="c6e5aade34"><path d="M 57 25.578125 L 295 25.578125 L 295 199.332031 L 57 199.332031 Z M 57 25.578125 " clip-rule="nonzero"/></clipPath></defs><g clip-path="url(#c6e5aade34)"><path fill="#ffffff" d="M 84.503906 25.863281 C 81.679688 25.863281 79.035156 26.398438 76.5 27.183594 L 103.160156 44.160156 L 248.832031 44.160156 L 275.496094 27.183594 C 272.957031 26.398438 270.3125 25.863281 267.488281 25.863281 Z M 67.242188 32.152344 C 61.058594 37.191406 57.058594 44.769531 57.058594 53.308594 L 57.058594 172.25 C 57.058594 187.367188 69.386719 199.699219 84.503906 199.699219 L 267.488281 199.699219 C 282.605469 199.699219 294.9375 187.367188 294.9375 172.25 L 294.9375 53.308594 C 294.9375 44.769531 290.933594 37.191406 284.75 32.152344 L 175.996094 101.34375 Z M 84.503906 75.398438 L 175.996094 133.652344 L 267.488281 75.398438 L 267.488281 181.398438 L 84.503906 181.398438 Z M 84.503906 75.398438 " fill-opacity="1" fill-rule="nonzero"/></g></svg>