<svg xmlns="http://www.w3.org/2000/svg" xmlns:xlink="http://www.w3.org/1999/xlink" width="470" zoomAndPan="magnify" viewBox="0 0 352.5 225" height="300" preserveAspectRatio="xMidYMid meet" version="1.0"><defs><clipPath id="c6e44331fa"><path d="M 132.929688 22.628906 L 219.058594 22.628906 L 219.058594 205.367188 L 132.929688 205.367188 Z M 132.929688 22.628906 " clip-rule="nonzero"/></clipPath></defs><g clip-path="url(#c6e44331fa)"><path fill="#ffffff" d="M 199.1875 52.96875 L 219.058594 52.96875 L 219.058594 22.949219 L 193.683594 22.949219 L 193.683594 23.066406 C 160.328125 24.289062 153.449219 43.011719 152.875 62.808594 L 152.796875 62.808594 L 152.796875 83.636719 L 132.929688 83.636719 L 132.929688 113.691406 L 152.796875 113.691406 L 152.796875 205.046875 L 188.449219 205.046875 L 188.449219 113.691406 L 214.011719 113.691406 L 219.058594 83.636719 L 188.449219 83.636719 L 188.449219 64.988281 C 188.449219 58.367188 192.882812 52.96875 199.1875 52.96875 Z M 199.1875 52.96875 " fill-opacity="1" fill-rule="nonzero"/></g></svg>